<?xml version="1.0" standalone="no"?>
<!DOCTYPE svg PUBLIC "-//W3C//DTD SVG 20010904//EN"
 "http://www.w3.org/TR/2001/REC-SVG-20010904/DTD/svg10.dtd">
<svg version="1.0" xmlns="http://www.w3.org/2000/svg"
 width="320.000000pt" height="320.000000pt" viewBox="0 0 320.000000 320.000000"
 preserveAspectRatio="xMidYMid meet">
<metadata>
Created by potrace 1.14, written by Peter Selinger 2001-2017
</metadata>
<g transform="translate(0.000000,320.000000) scale(0.100000,-0.100000)"
fill="#000000" stroke="none">
<path d="M576 3179 c-44 -11 -85 -24 -93 -30 -7 -6 -13 -8 -13 -4 0 10 -128
-62 -175 -99 -107 -83 -197 -203 -245 -326 -50 -129 -50 -136 -50 -1142 1
-566 5 -949 10 -964 6 -14 12 -37 15 -52 8 -49 56 -156 98 -222 112 -173 299
-295 504 -329 34 -6 436 -10 988 -10 906 0 932 0 1010 20 293 75 500 294 564
594 3 17 6 464 6 995 -1 756 -4 975 -14 1010 -7 25 -14 52 -16 60 -8 35 -59
136 -96 192 -53 78 -129 152 -209 203 -57 37 -89 54 -165 85 -11 5 -51 16 -90
24 -60 13 -202 15 -1010 15 -894 -1 -944 -2 -1019 -20z"/>
</g>
</svg>
